HIERARCHY
ROOT Hips
{
	OFFSET 0.00000 0.00000 0.00000
	CHANNELS 6 Xposition Yposition Zposition Zrotation Yrotation Xrotation 
	JOINT LHipJoint
	{
		OFFSET 0 0 0
		CHANNELS 3 Zrotation Yrotation Xrotation
		JOINT LeftHip
		{
			OFFSET 1.84395 -1.68683 0.74144
			CHANNELS 3 Zrotation Yrotation Xrotation
			JOINT LeftKnee
			{
				OFFSET 2.27037 -6.23779 0.00000
				CHANNELS 3 Zrotation Yrotation Xrotation
				JOINT LeftAnkle
				{
					OFFSET 2.56918 -7.05877 0.00000
					CHANNELS 3 Zrotation Yrotation Xrotation
					JOINT LeftToe
					{
						OFFSET 0.22276 -0.61202 1.71784
						CHANNELS 3 Zrotation Yrotation Xrotation
						End Site
						{
							OFFSET 0.00000 -0.00000 0.91613
						}
					}
				}
			}
		}
	}
	JOINT RHipJoint
	{
		OFFSET 0 0 0
		CHANNELS 3 Zrotation Yrotation Xrotation
		JOINT RightHip
		{
			OFFSET -1.76833 -1.68684 0.74144
			CHANNELS 3 Zrotation Yrotation Xrotation
			JOINT RightKnee
			{
				OFFSET -2.49360 -6.85110 0.00000
				CHANNELS 3 Zrotation Yrotation Xrotation
				JOINT RightAnkle
				{
					OFFSET -2.55538 -7.02085 0.00000
					CHANNELS 3 Zrotation Yrotation Xrotation
					JOINT RightToe
					{
						OFFSET -0.21516 -0.59115 1.68050
						CHANNELS 3 Zrotation Yrotation Xrotation
						End Site
						{
							OFFSET -0.00000 -0.00000 0.89604
						}
					}
				}
			}
		}
	}
	JOINT lowerback
	{
		OFFSET 0 0 0
		CHANNELS 3 Zrotation Yrotation Xrotation
		JOINT Chest
		{
			OFFSET 0.06382 1.72312 -0.19613
			CHANNELS 3 Zrotation Yrotation Xrotation
			JOINT Chest2
			{
				OFFSET -0.00055 1.73507 0.23859
				CHANNELS 3 Zrotation Yrotation Xrotation
				JOINT lowerneck
				{
					OFFSET 0 0 0
					CHANNELS 3 Zrotation Yrotation Xrotation
					JOINT Neck
					{
						OFFSET 0.03638 1.65562 0.09633
						CHANNELS 3 Zrotation Yrotation Xrotation
						JOINT Head
						{
							OFFSET 0.06388 1.62807 -0.32386
							CHANNELS 3 Zrotation Yrotation Xrotation
							End Site
							{
								OFFSET 0.00995 1.67644 -0.12021
							}
						}
					}
				}
				JOINT LeftCollar
				{
					OFFSET 0 0 0
					CHANNELS 3 Zrotation Yrotation Xrotation
					JOINT LeftShoulder
					{
						OFFSET 3.09648 1.42991 0.28122
CHANNELS 3 Zrotation Xrotation Yrotation
						JOINT LeftElbow
						{
OFFSET 0 -5.118780 -0.000000
CHANNELS 3 Zrotation Xrotation Yrotation
							JOINT LeftWrist
							{
OFFSET 0 -3.599710 0.000000
CHANNELS 3 Zrotation Xrotation Yrotation
								JOINT lhand
								{
									OFFSET 0 0 0
CHANNELS 3 Zrotation Xrotation Yrotation
									JOINT LFingers
									{
OFFSET 0 -0.628770 0.000000
CHANNELS 3 Zrotation Xrotation Yrotation
										End Site
										{
OFFSET 0 -0.506930 0.000000
										}
									}
								}
								JOINT LThumb
								{
OFFSET 0 0.000000 0.000000
CHANNELS 3 Zrotation Xrotation Yrotation
									End Site
									{
OFFSET 0 -0.514670 0.514670
									}
								}
							}
						}
					}
				}
				JOINT RightCollar
				{
					OFFSET 0 0 0
					CHANNELS 3 Zrotation Yrotation Xrotation
					JOINT RightShoulder
					{
						OFFSET -3.33565 1.14597 0.05047
CHANNELS 3 Zrotation Xrotation Yrotation
						JOINT RightElbow
						{
OFFSET 0 -5.490200 0.000000
CHANNELS 3 Zrotation Xrotation Yrotation
							JOINT RightWrist
							{
OFFSET 0 -3.206590 -0.000000
CHANNELS 3 Zrotation Xrotation Yrotation
								JOINT rhand
								{
									OFFSET 0 0 0
CHANNELS 3 Zrotation Xrotation Yrotation
									JOINT RFingers
									{
OFFSET 0 -0.691880 0.000000
CHANNELS 3 Zrotation Xrotation Yrotation
										End Site
										{
OFFSET 0 -0.557810 0.000000
										}
									}
								}
								JOINT RThumb
								{
OFFSET 0 0.000000 0.000000
CHANNELS 3 Zrotation Xrotation Yrotation
									End Site
									{
OFFSET 0 -0.566330 0.566330
									}
								}
							}
						}
					}
				}
			}
		}
	}
}
MOTION
Frames: 7
Frame Time: 0.008333333333333333
0.220192 16.872927 8.004004 -4.260294 14.824176 72.774318 0.000000 0.000000 0.000000 -36.518891 -11.182227 -89.706150 0.055017 1.512150 4.159219 -3.305379 -33.958577 30.890173 0.946767 6.196904 17.356851 0.000000 0.000000 0.000000 -14.148791 26.304384 -75.129235 -0.011632 -0.695289 1.910660 5.021768 -36.178705 -19.053964 -0.003290 -0.348076 0.956350 13.251575 -0.306381 34.795318 0.298597 4.002557 8.058752 -8.007973 1.697926 -7.549447 -4.173483 -12.818181 -8.151480 26.724593 -13.594821 -28.078835 9.449303 -8.905563 -4.549244 0.000000 0.000000 0.000000 45.738767 1.370497 -61.463109 129.574391 -53.165680 93.485596 64.268310 -75.683070 31.987105 0.000000 0.000000 0.000000 -7.125000 0.000000 0.000000 17.072043 -23.275244 23.182701 0.000000 0.000000 0.000000 -139.076461 -35.948782 -135.683264 -14.873582 -23.969504 -3.174491 -25.856841 9.839319 49.239139 0.000000 0.000000 0.000000 7.125000 0.000000 0.000000 42.083042 79.772823 -34.749533
0.170809 16.923887 8.092379 -5.239916 14.465738 71.188289 0.000000 0.000000 0.000000 -34.638893 -8.439853 -88.567943 0.050735 1.453777 3.998300 -3.129570 -33.011011 29.661837 0.905634 6.064137 16.970773 0.000000 0.000000 0.000000 -13.717667 27.771810 -74.139693 -0.020500 -0.923864 2.539324 4.906370 -35.967942 -20.307268 -0.040833 -1.302400 3.581342 13.941780 -0.032266 35.076150 0.142895 4.542164 8.309595 -8.699289 1.974636 -7.183840 -6.440580 -13.348212 -9.229354 29.583825 -13.943357 -27.134100 10.497484 -8.955514 -3.439510 0.000000 0.000000 0.000000 44.620534 -0.160618 -60.715036 128.384787 -53.626480 92.530587 64.339480 -74.977660 32.023036 0.000000 0.000000 0.000000 -7.125000 0.000000 0.000000 17.095199 -23.375229 23.230717 0.000000 0.000000 0.000000 -145.248616 -41.689791 -132.480061 -15.526895 -24.874468 -3.444828 -25.645129 7.769328 49.593862 0.000000 0.000000 0.000000 7.125000 0.000000 0.000000 43.919639 79.883128 -36.422798
0.015757 16.948555 8.210860 -4.681501 12.240095 71.821774 0.000000 0.000000 0.000000 -35.114807 -7.941104 -87.811702 0.031619 1.148433 3.157441 -3.034706 -31.733282 26.767170 0.592998 4.929630 13.708075 0.000000 0.000000 0.000000 -16.605782 27.796650 -75.443592 -0.035995 -1.224572 3.367007 4.491357 -34.827479 -20.700005 -0.135893 -2.375370 6.544219 12.189312 1.191858 34.064046 -0.219186 5.238808 8.466452 -8.439103 2.346876 -6.749958 -7.918493 -13.903397 -7.763703 30.861646 -14.416968 -27.838238 11.273449 -9.299709 -3.487833 0.000000 0.000000 0.000000 44.077517 -1.160725 -60.716181 128.037000 -53.757163 92.250288 64.961832 -75.387401 32.426326 0.000000 0.000000 0.000000 -7.125000 0.000000 0.000000 17.262719 -24.347524 23.609564 0.000000 0.000000 0.000000 -160.503992 -48.315776 -126.040510 -18.194943 -28.405889 -4.641673 -27.429858 1.132722 47.336946 0.000000 0.000000 0.000000 7.125000 0.000000 0.000000 32.095284 79.210813 -25.900356
-0.143891 16.933994 8.312143 -4.643677 11.771811 72.551280 0.000000 0.000000 0.000000 -33.501367 -7.320301 -87.696208 0.021668 0.949681 2.610225 -3.013151 -30.957574 24.454463 0.259478 3.276817 9.050329 0.000000 0.000000 0.000000 -17.340980 28.465956 -76.349195 -0.036596 -1.235021 3.395680 4.569915 -35.024257 -20.442922 -0.139707 -2.408660 6.636465 12.806143 2.017760 33.181723 -0.467273 6.229954 8.911915 -9.269058 2.910277 -5.640587 -6.286683 -14.145272 -6.543066 30.695273 -14.609528 -28.876735 11.173351 -9.721478 -4.179157 0.000000 0.000000 0.000000 44.578518 -2.955465 -62.030825 127.787730 -53.849719 92.049131 65.111667 -75.134420 32.392170 0.000000 0.000000 0.000000 -7.125000 0.000000 0.000000 17.354048 -24.438494 23.755615 0.000000 0.000000 0.000000 -171.018435 -49.828377 -117.224551 -18.928816 -29.330113 -4.995952 -25.040760 -4.082878 48.802407 0.000000 0.000000 0.000000 7.125000 0.000000 0.000000 40.871910 79.164351 -33.242006
-0.222408 16.940469 8.335499 -4.552758 13.240183 72.243422 0.000000 0.000000 0.000000 -29.992050 -7.600404 -87.781421 0.045315 1.373405 3.776947 -2.438804 -28.743228 23.876360 0.350983 3.805650 10.530452 0.000000 0.000000 0.000000 -15.353226 28.847845 -75.207378 -0.021431 -0.945230 2.598072 4.818035 -35.675219 -19.875404 -0.102146 -2.060838 5.673705 14.103849 2.340764 33.176099 0.483398 7.063146 9.241355 -9.113066 3.337719 -5.010199 -4.446289 -14.434566 -6.035678 29.403332 -15.113136 -29.760873 10.580773 -10.162099 -4.835048 0.000000 0.000000 0.000000 44.267139 -4.645934 -63.792277 128.380065 -53.628323 92.526723 64.901845 -75.103924 32.675701 0.000000 0.000000 0.000000 -7.125000 0.000000 0.000000 17.134128 -24.568903 23.451766 0.000000 0.000000 0.000000 -165.857050 -45.871243 -118.624234 -16.089878 -25.641697 -3.685175 -20.483235 -1.329665 49.975050 0.000000 0.000000 0.000000 7.125000 0.000000 0.000000 49.834140 77.904572 -39.863455
-0.196321 16.931249 8.371734 -4.230509 12.420998 72.853779 0.000000 0.000000 0.000000 -28.983017 -8.264321 -87.866247 0.052016 1.471784 4.047986 -1.909265 -26.603779 23.713452 0.806129 5.729309 16.001151 0.000000 0.000000 0.000000 -16.489803 28.491124 -75.337747 -0.013522 -0.751064 2.064159 5.012914 -36.238656 -20.055150 -0.039574 -1.280802 3.521887 12.331676 1.269299 33.391154 -0.104292 5.271306 8.843883 -8.339320 2.428043 -6.053433 -4.837824 -13.699584 -9.022646 29.170757 -14.493694 -27.483799 10.117123 -9.422883 -3.711902 0.000000 0.000000 0.000000 44.322023 -1.578344 -62.166574 128.078715 -53.741548 92.283935 64.915857 -75.197791 32.603787 0.000000 0.000000 0.000000 -7.125000 0.000000 0.000000 17.169650 -24.502426 23.494576 0.000000 0.000000 0.000000 -151.173168 -41.688517 -128.700246 -13.167201 -21.531704 -2.514328 -25.353101 9.519818 47.403794 0.000000 0.000000 0.000000 7.125000 0.000000 0.000000 34.972114 78.381205 -27.752148
-0.118536 16.943866 8.428575 -4.660225 13.712144 72.663709 0.000000 0.000000 0.000000 -25.754989 -8.283994 -87.467778 0.061533 1.600154 4.401873 -1.483632 -24.353185 22.708488 1.147316 6.801227 19.127914 0.000000 0.000000 0.000000 -14.830407 28.828863 -74.517907 -0.009544 -0.630265 1.731991 5.356910 -37.129677 -19.527426 -0.001823 -0.272162 0.747775 13.109339 -1.003268 34.731812 -0.521314 3.010655 8.149989 -8.484370 1.263969 -7.607975 -7.484335 -13.198527 -12.068638 30.515650 -14.038534 -24.158412 10.479788 -8.548151 -1.836544 0.000000 0.000000 0.000000 43.144446 1.733044 -60.001159 127.550257 -53.936973 91.857299 65.280517 -75.281477 32.683764 0.000000 0.000000 0.000000 -7.125000 0.000000 0.000000 17.327608 -24.901385 23.778745 0.000000 0.000000 0.000000 -141.707145 -42.269097 -143.568061 -11.951981 -19.732261 -2.086319 -22.819561 19.847035 45.804416 0.000000 0.000000 0.000000 7.125000 0.000000 0.000000 32.742058 76.210084 -24.514523
